/* XPM */
static char *Alpha_Pattern_59969__1_1725390991[] = {
/* columns rows colors chars-per-pixel */
"50 50 238 2 ",
"   c #0B0805",
".  c #160E00",
"X  c #1B1403",
"o  c #1D1B03",
"O  c #1B1A0C",
"+  c #161507",
"@  c #1B1A15",
"#  c #1B1C1B",
"$  c #181514",
"%  c #0E100D",
"&  c #221C0B",
"*  c #261B07",
"=  c #221B14",
"-  c #241E1B",
";  c #2B1A13",
":  c #0B2B07",
">  c #14350D",
",  c #1B2819",
"<  c #1B341D",
"1  c #153B16",
"2  c #0C3707",
"3  c #292508",
"4  c #393409",
"5  c #232212",
"6  c #2C2116",
"7  c #24221C",
"8  c #2B241C",
"9  c #272B1B",
"0  c #322C1D",
"q  c #332819",
"w  c #22341C",
"e  c #343010",
"r  c #261725",
"t  c #1C3B22",
"y  c #242423",
"u  c #2B2523",
"i  c #242A24",
"p  c #2B2A24",
"a  c #2C2C2B",
"s  c #27272B",
"d  c #322C23",
"f  c #322D2B",
"g  c #3A2E28",
"h  c #2C3125",
"j  c #2C322B",
"k  c #273A29",
"l  c #34342D",
"z  c #393728",
"x  c #2D2A31",
"c  c #2C2532",
"v  c #362C38",
"b  c #333332",
"n  c #3B3B34",
"m  c #383837",
"M  c #2A3030",
"N  c #423A2B",
"B  c #443B37",
"V  c #184518",
"C  c #1E4522",
"Z  c #264627",
"A  c #3B4338",
"S  c #374A30",
"D  c #4A4728",
"F  c #524E2F",
"G  c #5A542B",
"H  c #4A4537",
"J  c #534B3D",
"K  c #544A38",
"L  c #57553A",
"P  c #41523F",
"I  c #625A35",
"U  c #69653A",
"Y  c #706E3E",
"T  c #4F4A12",
"R  c #3D4140",
"E  c #444443",
"W  c #4C4D4B",
"Q  c #4A4745",
"!  c #534D44",
"~  c #524C4B",
"^  c #4A5746",
"/  c #585648",
"(  c #565754",
")  c #4E4F53",
"_  c #635948",
"`  c #635C55",
"'  c #604E40",
"]  c #53654F",
"[  c #696546",
"{  c #746849",
"}  c #797648",
"|  c #6B6759",
" . c #746A5A",
".. c #767359",
"X. c #6E7154",
"o. c #696A64",
"O. c #756A64",
"+. c #7B7365",
"@. c #797567",
"#. c #7B7B7A",
"$. c #797675",
"%. c #697765",
"&. c #827F5C",
"*. c #84796D",
"=. c #85786B",
"-. c #867C75",
";. c #76866D",
":. c #798675",
">. c #7E917B",
",. c #848152",
"<. c #87877A",
"1. c #93897A",
"2. c #99957A",
"3. c #8C8A64",
"4. c #A8A577",
"5. c #CDC676",
"6. c #817C83",
"7. c #848483",
"8. c #8A8987",
"9. c #968B84",
"0. c #8A9788",
"q. c #9A9589",
"w. c #989895",
"e. c #918F92",
"r. c #A49A8A",
"t. c #A79E95",
"y. c #96A493",
"u. c #ABA789",
"i. c #B5AF81",
"p. c #B5B389",
"a. c #AAA699",
"s. c #B5AA9D",
"d. c #BBAC9E",
"f. c #B1A39A",
"g. c #B9B598",
"h. c #AA9CA8",
"j. c #A9A8A6",
"k. c #B3ABA2",
"l. c #BBAEA3",
"z. c #B2AEA9",
"x. c #B2A7A1",
"c. c #AFB1AC",
"v. c #BCB2A5",
"b. c #B2B2AB",
"n. c #BCB3AB",
"m. c #B9BAAC",
"M. c #B6B4A3",
"N. c #B5B6B3",
"B. c #BBBBBA",
"V. c #BCB8B5",
"C. c #C4BD8B",
"Z. c #C3B4A5",
"A. c #C2BAA4",
"S. c #C3B6AA",
"D. c #C4B9AD",
"F. c #CBBBAC",
"G. c #CABAA6",
"H. c #C5BBB2",
"J. c #CABEB2",
"K. c #C6BAB8",
"L. c #BFC0B0",
"P. c #CBC688",
"I. c #D4CA87",
"U. c #DDD38D",
"Y. c #D6D486",
"T. c #C9C696",
"R. c #D3CD9C",
"E. c #D4CD98",
"W. c #DAD393",
"Q. c #D9D59A",
"!. c #E1D99C",
"~. c #E1D98D",
"^. c #C9C7A5",
"/. c #D1C9A7",
"(. c #D5D3A3",
"). c #DBD5A9",
"_. c #CDC1B4",
"`. c #CCC3BB",
"'. c #C5C3B8",
"]. c #D2C2B4",
"[. c #D1C6BA",
"{. c #D5CABD",
"}. c #D9CABD",
"|. c #DBD7BC",
" X c #E3D8A7",
".X c #E5DCB7",
"XX c #E8E5B7",
"oX c #E6E3A7",
"OX c #BEB8C4",
"+X c #C6BEC5",
"@X c #BDC0C5",
"#X c #C5C4C4",
"$X c #CDCCCC",
"%X c #CAC7C6",
"&X c #D4CBC2",
"*X c #D9CDC2",
"=X c #D2CCC9",
"-X c #CDD1C8",
";X c #D2D3CD",
":X c #D6D9CC",
">X c #D7D6C7",
",X c #CDCBD5",
"<X c #C8C9D6",
"1X c #D3CDD7",
"2X c #CCD2D7",
"3X c #D5D5D5",
"4X c #D6D9D3",
"5X c #DADAD5",
"6X c #D6D6DA",
"7X c #D9D6DA",
"8X c #D7D9DA",
"9X c #DADADA",
"0X c #D9D5D3",
"qX c #E1D7C9",
"wX c #E0DEDD",
"eX c #E4DDD7",
"rX c #DEE0DC",
"tX c #DDE0D3",
"yX c #EAE5C9",
"uX c #E2E3DE",
"iX c #E7E8DA",
"pX c #F5EEDE",
"aX c #DDDCE2",
"sX c #D7D8E4",
"dX c #CDCFE8",
"fX c #E6DCE8",
"gX c #DEE3E4",
"hX c #DFE1F0",
"jX c #E3E3E3",
"kX c #EBEAE5",
"lX c #E6E4EB",
"zX c #EBEBEB",
"xX c #E8E8E6",
"cX c #F2EEEC",
"vX c #F3F2EC",
"bX c #E6E4F2",
"nX c #F9F7F9",
"mX c #EEF0EB",
/* pixels */
"-X:X;X3X3X6X9X-X:X>X:X-X4XgXdXdXsX2X2XdXhXgXdXgXrXtXtX9XuXuX9XaXsXbX<X1X5X-X:X>X>X:X:X:X-X4X4X;X4X3X",
":X:X:X9X7X3X9X5XtXtX:XrXgX2XsXhX8XgXgXgX@X%X@X'.m.m.m.L.m.m.V.#X#X<XzXjX5X:X>X5XtX-X8X8XjX3X9X9X7X4X",
":X5X5X5XuX6X9X9X1X9X$X1X-XrXgXrX-Xy.%XL.A + h o S L D D D K K 5 O n m.L.M.=X9X6X1XbXaX2XaXsX2XgX9X7X",
"0XuX5X;X5X8X8X3XfXsX7XfXmX;Xy.u.z o O , [ / [ D 4.(.R.(. X.XC.} L [ L : O z z.aXlX<X<XnX2XaX8X4X9X4X",
"3XaX5X:X0X0XjXaX1XsXbXe.q.I * G U X.L > ,.p.XX(.!. XU.U.E.P. XW.!.Y.oX[ } ! & 7.%XlXlX,X;XrXrX4X7X4X",
"6X6X5XuX4X;XwX7XnXOX6.= F U &.!.(.).R.D X U (.Q.C.U.I.~.U.5.~.I.~.5.Y.P.XXT.{ * ~ j.kX'.iX;X4X:X5X9X",
"sX6X7X9X:XeX%X<.9.B ; &./.XX!. X(.|.p.3 3 Y E.P.U.U.5.5.U.~.U.5.5.5.Y.W.C.R.qX2.N & <.tXkX{.rX:X5X4X",
"sX8X6X;X0XvXM.& . _ 2.qXT.R.5.} Y 4.^.e 3 U XXR.U.C.I.U.U.C.C.!.U.I.I.Q. X).).yX^.... J s.mX;XtX7X6X",
"aX,XaX3XkXa.L 3 ,.T.).P.C.E.C.3 o z | u.N D ../.G.U.E.!. X XE. X X X.X{ { { I _ u.|.r.z n 8.,XaX8X3X",
",X7X8X9X@.h e u.E.Q.P.!.!. XG.r.L 5 9 | D 9 e D Z. XT.Y G G { I { J ' g ; ; * X e [ ..z $ c bXsXaX3X",
"8XfX9X9Xl o F oXP.Y.W.W.U G _ _ n 6 f 8 - @ l q N F D 3 * * ; * ; ; ; g ; B F.C.[ 3 o 2.O.B E OXaX3X",
"5X$X9X=X^ + L (.E.~.4.T 4 * B q.a.t.z.w.n.n.9.d e q N 2.d.l.r.Z.f.S.l.N q N N G.(.4.i.yX2.O $ c.fX4X",
";XjXN.l d ;.L.(.(.;.4 4 r.g.k.{.H.H.&X%XK.K.&XS.f.s.u.}.J.[.S.&X].A.A.M.S.1.e 3 ,.oXR.T.T.g.h j.uX5X",
"7X5Xc.O X 1.yXg.F o K S.A._.{.Z.H.n.Z.J.D.S.D.J._.}.[.l.S.H.K.K.v.A.{.n.%Xf.H q e 4 T.(..Xp.+ M.jX4X",
"0X5Xm.6 L <.1.O 0 d B K.n.`.D.v.F.G.F.F.J.]._.Z.A.A.F.Z.[.K.K.S.A.A.D.K.K.V.+XB 9 3 o 3.^.|.O k.uX7X",
"$XkXj.o a._ z L h - B %XS.D._.D.G.G.F.Z.F.Z.F.F.G.G.Z.S.F.S.K.K.F.v.K.V.+X+XB.! 6 D L o [ 2.o M.uX4X",
"$XkXb.O 5 3 N pXK 0 =.S.K.K.S.J.F.F.F.Z.F.Z.F.F.F.G.F.F.F.Z.F.J.J.D.J.S.K.J.J.N & I yX=.L [ 3 M.uX9X",
"8X9Xm.p | |  .1.0 =.*XZ.J.Z.S.K.F.G.Z.].].F.Z.Z.F.F.F.G.F.F.F.Z.S.D.Z.n.Z.H.}.=.B B 1.Z.iXm.& M.5X,X",
";XrXj.$ '.pXZ.3 * ..F.Z.}.*X*XS.F.F.Z.F.Z.G.G.F.F.F.Z.G.F.F.F.Z.H.J.J.}.*X[.s.}.+.. * v.>Xg.3 a.kX0X",
"-XmXm.$ '.q._ z  .r.J.Z.=.O.=.=.F.F.F.Z.F.F.].Z.].Z.Z.F.F.Z.F.].Z.K. .O.*.-.J.[.t.{ q / u.'.+ m.jX4X",
";XrXj.9 `.@.  3 Z.F.J.[.r.9.9.1. .9.F.F.F.Z.F.F.F.F.F.F.].].F.l.r.O.9.9.1.t.l.l.]._.1.0 ..>X, a.5X;X",
"8XrXN.$ ` ! n q.d.J.S.d.*X&XH.*Xr.-.=.d.F.}.S.F.Z.F.F.Z.F.].d.6.-.t.*X&X*XS.S.&X_.s.`.H z %.O m.zX8X",
"8X4Xb.9 l + J {.H.H.D.v.[.9.B J Z.Z.f.Z.S.F.S.F.F.].F.d.G.].d.6.J.r.! B -.*XJ.l.n._.*X! d 9 . m.5X9X",
"-XjXc.@ h 5 ` n.H.v._._._ u N D.K -.G.F.J.S.J.F.F.S.F.].F.F.].qX+.N = f.=._ J.J.H.m.m.! = 0 l l 8.5X",
"xX#.j a l p Q `.n.K.[.J.! q 8 ! q O.J.J.S.J.l.[.S.F.F.F.J.F.d.}.| q - H N ! +XD.`.v.S.~ @ n l % o.zX",
"gXo.# s m.| H `.&Xx.x.K.K.*.N d r.Z.J.D.K.J.D.Z.}.K.F.Z.F.K.J.K.`.a.N = -.S.S.K.K.V.eXm @.z.p , o.aX",
"gX>.M , z.( n x.x.&X*Xx.&XS.D.H.S.J.D.D.J.S.F.Z.d.l.K.}.}.S.F.S.v.M._.H.H.K.S.K.v.%Xt.f o.j.@ b w.9X",
"-XrXL.) 7 7 7 f l.+XS.x.V.H.n.H.K.J.D.D.J.J.}.qX*X}.}.6.l.F.F.K.*Xn.m.S.J.J.n.&X+X-.f u f W ) B.,XjX",
"rX4XjX-X$.o.! $ *.h.=X=XK.n.m.H.J.Z.F.H.D.k.=.=.-.-.=.6 =.].F.S.v.H.H.M.J.K.&Xt.! r ( ~ w.wXlXjXaX4X",
"2X4XrX9X0XcX=XO.| O.-.9.H.&X>Xv.H.l.J.S.Z.a.` _ _ `  .H r.+Xx.S.m.n.%XqXt.-.q.u B -.cXcXlXgX%X8X5X3X",
";XtX9X0X5X$XwXwXnX-.- - o.O.1.{.{.`.&XJ._.{.J.qXqX}.{.&XqX[.J.qX{.D.+.=.B = d = 9.cX7X=X%XlX8XaX6X3X",
"2XrX0X9XwX5X0X0XwX9.= g ! B @ %.| @. . .@. .O. .|  .| @. . .=.` O.|   ! o.` u r -.xX7X7XfX6X3X8XaX$X",
"2X8X8X8X9X9X7X4XxX7.$ b 7.7.( %.1 2 > > : S ] ] ( o.) t , 2 2 2 , 7 %.e.y.#.b # #.zX4X7XaX1X9X7X5X4X",
";X8X8X8X7X9X5X4XzX$.s # 7.j.j.A S V > > ] ;.0.0.y.8.] k C C V V ^ 7.j.8.e.8.a $ e.wX1X3X7X7XwXwX7X7X",
"3X8X5X8X4X9X7X6X7X;X8.y E b W a k S ;.;.<.y.0.E ) m s s t t V : A W b A ( b # j.B.rX4X7X7XwX7X7X7X4X",
"3X5X5X8X8X9X7X4X,XxXjXB.W # s # 1 R y.0.>.>.:.i s # s M y < C < i , j M % E B.3X9XfXaX9X7X7X7X7X7X4X",
"3X4X8X7X8X5X7X4X8X8X3XjX) a a b t C C 1 Z Z Z Z k M m j i A :.0.E j s j M ( jXgX9X1X7X4X7X7X6X7X7X6X",
"3X4X9X5X7X9X7X6XjX$XaX$XE y b i < t Z Z Z Z k 1 , , M s y ^ 7.0.( M a y y Q $X$X9X3X9X6XfX4X7XaX4X7X",
"3X7X7X7X8X9X5X4X5XjXN.a x y # b s ~ w.w.>.0.<.b M c v v c x v x s s i y b i m B.jX9X8X6XjX6X6X9X7X4X",
"3X4X9X6X5X9X7X4X9X9X%Xy E ) E j - ~ >.o.>.:.%.h M y c v v c x x j y b H E E y B.9XwX3X3XlX3X9X9X4X7X",
"4X9X9X5X9X9X9X6X3XjXB.y c.8XN.i t t < V V 2 V > < 9 h u u u n u u c a N.,Xc.y %X9X9X9X8X9X8X7X7X8X4X",
"3X9X9X6X7X9X9X4X9XjXB.% 6.e.7.j < 1 C V C V V 1 w < h b N 8 u p n , p #.w.#.% N.jX9X9X8XaX8X9X7X7X6X",
"3X7X9X9X5X9X9X7X4X$X$X#.y % # % y - h , < > 9 , , 7 s # x y y j y y y @   y 7.%X9X9X9X8X8X8X8X8X9X4X",
"4X9X9X7X4X9X9X4XzX3XfXmXe.7.7.8.-.` l A A n A i o.e.6.c m E R A m m 8.8.#.e.zX8X9X9X9X8X8X8X8X7X7X6X",
"6X7X9X6X6X9X9X7X3X3X9X$XzXzXgXgXnXy.w R ^ ] W ; c.cX1XQ Q ! ^ ! p ~ nX9XcXcX$X4X9X9X8X8X8X8X8X8X7X4X",
"4X7X9X5X5X9X9X4X3X9XjX$X9X3X;X8XfX8.@ S Z n n r w.lX=Xv l b l A u ` xX3X$XuX3XjX9X9X8X8X9XaX9X8X7X4X",
"4X5X9X9X7X9X9X4XjX$X3XjX4XwX4XaX6.Q f f u r v r h.fXfXv c p i j a f ( 9XuX$X9X;X9X9X8X8X8XsXaX8X7X4X",
"6X9X9X6X9X9X9X8X8X9XjX%XfX4X7XjX~ $ B u f v v r h.fXfXv s M M a y l @ V.9XuX9X9X9X9X8X8X8X8X9X8X7X6X",
"4X7X6X7X4X7X8X7X7X7X9X7X9X9X7X7X#X#X#X#X+X#X+X+X7X7X1X$X#X#X#XL.#X%X$X3X4X7X7X7X7X7X9X7X9X8X7X9X7X4X",
"3X3X3X3X3X4X4X4X6X3X4X3X4X4X6X3XwX9X9X9X9X9X9X9X0X7X7X0X3X7X9X9X8X6X9X5X6X4X3X3X4X4X4X3X4X4X3X6X4X3X"
};
