/* XPM */
static char *_d792fccfd774ff4a3e46be6135b8ef0VWMyELZsSftIkbMu[] = {
/* columns rows colors chars-per-pixel */
"50 50 234 2 ",
"   c #0B0805",
".  c #170D00",
"X  c #151402",
"o  c #1B1403",
"O  c #1D1B03",
"+  c #1D160E",
"@  c #1C1A0C",
"#  c #161709",
"$  c #131313",
"%  c #1C1A14",
"&  c #1B1C1B",
"*  c #1B1615",
"=  c #0E100D",
"-  c #20170E",
";  c #22190E",
":  c #261B07",
">  c #251B11",
",  c #2A1E12",
"<  c #241E1B",
"1  c #0C2A07",
"2  c #0C3707",
"3  c #14340C",
"4  c #13380D",
"5  c #1D2B1C",
"6  c #1A2717",
"7  c #1B341D",
"8  c #153B16",
"9  c #2D230A",
"0  c #282506",
"q  c #3A340A",
"w  c #232212",
"e  c #2D2113",
"r  c #25221D",
"t  c #2C241C",
"y  c #282B1B",
"u  c #332415",
"i  c #3B2917",
"p  c #31251B",
"a  c #332C1C",
"s  c #3E2C18",
"d  c #312B14",
"f  c #22311B",
"g  c #233B1C",
"h  c #343010",
"j  c #261725",
"k  c #1C3B22",
"l  c #242423",
"z  c #2B2423",
"x  c #252B24",
"c  c #2B2A24",
"v  c #2C2C2B",
"b  c #27272B",
"n  c #322C23",
"m  c #322D2B",
"M  c #3A2E28",
"N  c #2C3125",
"B  c #2C322B",
"V  c #253A28",
"C  c #3A3426",
"Z  c #34342E",
"A  c #3A3829",
"S  c #2D2932",
"D  c #2C2531",
"F  c #352A34",
"G  c #372D3A",
"H  c #2C3430",
"J  c #323332",
"K  c #333A31",
"L  c #3B3B33",
"P  c #3A3739",
"I  c #422E19",
"U  c #46311A",
"Y  c #4B341C",
"T  c #50381D",
"R  c #433B2C",
"E  c #433828",
"W  c #443A37",
"Q  c #194518",
"!  c #1E4522",
"~  c #264627",
"^  c #3B4338",
"/  c #374A30",
"(  c #4E4A2B",
")  c #474427",
"_  c #554E2E",
"`  c #5A542A",
"'  c #4E453B",
"]  c #494435",
"[  c #534B3D",
"{  c #544A38",
"}  c #58553A",
"|  c #41523F",
" . c #635A35",
".. c #67643A",
"X. c #706B3D",
"o. c #4F4A12",
"O. c #3E4241",
"+. c #444443",
"@. c #4C4D4C",
"#. c #4A4744",
"$. c #534D44",
"%. c #524B49",
"&. c #4A5746",
"*. c #5F5C45",
"=. c #53524C",
"-. c #5A5046",
";. c #595A57",
":. c #555752",
">. c #4E4F53",
",. c #645C43",
"<. c #61554B",
"1. c #655A4D",
"2. c #665744",
"3. c #615B54",
"4. c #665E58",
"5. c #604E40",
"6. c #4F664C",
"7. c #596452",
"8. c #696546",
"9. c #746849",
"0. c #757248",
"q. c #6A645C",
"w. c #6B6858",
"e. c #746C5E",
"r. c #746959",
"t. c #767359",
"y. c #6D705B",
"u. c #696B63",
"i. c #756A64",
"p. c #697765",
"a. c #7B7365",
"s. c #797566",
"d. c #7D7A78",
"f. c #817E55",
"g. c #82766C",
"h. c #84796C",
"j. c #8A7B6E",
"k. c #8A7D72",
"l. c #857B76",
"z. c #76866D",
"x. c #798675",
"c. c #7E917B",
"v. c #848152",
"b. c #88887A",
"n. c #93897C",
"m. c #928778",
"M. c #9A957A",
"N. c #8C8A64",
"B. c #A8A577",
"V. c #D2C77E",
"C. c #C8C56F",
"Z. c #878885",
"A. c #988C83",
"S. c #8A9788",
"D. c #92938E",
"F. c #9C9286",
"G. c #989995",
"H. c #A3968C",
"J. c #A29C8D",
"K. c #A89D86",
"L. c #A79E95",
"P. c #96A493",
"I. c #ABA789",
"U. c #B5AF81",
"Y. c #B6B389",
"T. c #ABA39D",
"R. c #ACA495",
"E. c #B5AA9D",
"W. c #BBAC9E",
"Q. c #B1A29B",
"!. c #B9B598",
"~. c #A8A9A7",
"^. c #B3AAA2",
"/. c #BBAEA3",
"(. c #B3ABA6",
"). c #BCB2A5",
"_. c #BCB3AB",
"`. c #B9B7A9",
"'. c #BCB4B6",
"]. c #C4BD8B",
"[. c #C3B4A5",
"{. c #C2BAA5",
"}. c #C3B6AA",
"|. c #C4B9AD",
" X c #CBBBAD",
".X c #CABAA6",
"XX c #C5BBB2",
"oX c #CABEB2",
"OX c #C6BAB7",
"+X c #CBC688",
"@X c #D4CC84",
"#X c #D3CB8C",
"$X c #D5C886",
"%X c #DDD38D",
"&X c #D6D486",
"*X c #CBC69B",
"=X c #C7C594",
"-X c #D2CC95",
";X c #D3CD9C",
":X c #DCCE9F",
">X c #DAD393",
",X c #DBD59D",
"<X c #D8D698",
"1X c #E1D98D",
"2X c #E2D89C",
"3X c #C9C6A5",
"4X c #D1C9A7",
"5X c #D5D3A3",
"6X c #DBD3A4",
"7X c #DBD7AC",
"8X c #CDC1B4",
"9X c #CDC3BB",
"0X c #C6C3B5",
"qX c #D2C2B4",
"wX c #D1C6BA",
"eX c #D5CABD",
"rX c #D9CABD",
"tX c #DBD7BC",
"yX c #E2D8A8",
"uX c #E5DCB7",
"iX c #E6E3A7",
"pX c #E8E5B7",
"aX c #C9BDC7",
"sX c #CDC2C5",
"dX c #D4CBC3",
"fX c #D9CDC3",
"gX c #D3CAC4",
"hX c #DCD2C5",
"jX c #DBD6C8",
"kX c #D6D6D5",
"lX c #E1D7C9",
"zX c #E4DDD7",
"xX c #EAE5C9",
"cX c #F3ECDB",
/* pixels */
"t ; > - + + + + + + + + + + + + + m + + ; > + + + > ; + + + + + + + + + + ; > + + + + + + + + + > > ",
"+ , u u u u u u u u u u u u > > u u u u i i u u u u u u u u e u u u u u u u i u u u u u u u e > e i ",
"% u Y Y Y Y Y Y Y Y Y Y Y Y e u Y Y Y Y L # N O ) } ( ) ( } { w % L Y Y Y Y Y Y Y Y Y Y Y Y I > s T ",
"U Y Y Y Y Y Y Y Y Y Y Y Y U > u C X O w 8.*.,.( B.5X;X5XyXyX].0._ 8.} O @ C Y Y Y Y Y Y Y Y I ; i Y ",
"Y Y Y Y Y Y Y Y Y Y Y Y Y *.0 ` ..0.} O f.Y.pX5X,XiX$X#X#X+XyX>X>X-XiXX.0.} ; Y Y Y Y Y Y Y I ; u Y ",
"U U Y Y Y Y Y Y Y Y U < { 8.f.,X5X7X3X( X  .6X-X$X%X@X%X%X$X>X@X1X&X@X+XpX=Xw.o $.Y Y Y U Y U ; u U ",
", , , , , , , , e W e t.4XpX<XiX7XpXY.0 0 0.;X-X#X%X@XV.@X1X%XV.C.C.&X>X].;XuXM.R ; , , , e e > > , ",
", > + > , , > ; . ,.M.uX*X;X].0.X.B.3X0 0 ..pX;X-X+X#X%X$X+X+X2X%X@X#X2XyX6X7XxX{.t.X } , e e u e , ",
"U u > I Y Y U 0 v.=XyX=X-X;XU.0 O A y.I.) ) t.4X*X;X<X,XyXyX:X6X6XyXuX9.8.r.,.,.I.tXJ.L L U U Y Y Y ",
"Y i > I Y C h U.-X<X+X2X,XuX3XK.[ 6 y w.] t d ( !.7X*XX.` ` 9. .8.} 5.i , : : o h 8.t.C * v Y Y Y Y ",
"Y i ; s Z @ _ 7X+X#X>X>X..` 2.1.L r n t < % C a E _ ( 9 9 9 9 : , , , M p { [.!.8.O O M.e.L +.Y Y Y ",
"Y u ; I #.O } 5X-X,XB.o.q : R F.T.L.(.L._._.A.a a d C M.E./.H.}.Q.|./.W p R E 3X5XU.U.xXM.@ * Y Y Y ",
"u e > Z n s.3X4X5Xf.q q K.W./.dXXXXXgX9XOX9XgX|.E.E.R.eX8XwX_.gX8X[.}./._.n.d 0 v.7X,X=X*X!.a u u u ",
"+ > , @ X b.xX!._ O { {.{.8XeX).oX}.}.oXXX|.|.|. XeXwX).|.XXOXXX{.{.eX_.9XT.' d h q =X5XuX!.X > ; ; ",
"+ u U w } b.m.; n n ' OX_.9X|.[. X X X XoXqXoX[.{.{. X).eXOXOX_.{.{.|.OX'.'.sXW d 9 0 N.3XtX: U I I ",
"+ u Y @ R.8.C $.M < W sX'.|.8X|..X.XqX[. X[. X X X X[.[. XXX|.XX8X!.XX_.sXaX'.%.e R } : 8.m.O Y Y Y ",
"+ u Y @ w w R cX{ n h.|.oXoX).8X X XqX[. X[. X X X X X X X}. XoX8X|.oX|.oXXXoXR o [ xXt.} *.: Y Y Y ",
"+ u Y n q.w.e.m.i h.hX|.oX/.).oX X}.[.qX XqX[.[. X X X[. XqX X[.}.XX}.}.).|.rXj.] ] n.{.cX`.w Y Y Y ",
"* e I + 0XcX).e o a.8X/.eXfXfX}.}. X[. XW.}..XqX X X[.[. X X X}.XXoXoXfXhX8XE.eXa.. ; ).lX).w i i s ",
"+ ; ; # 0XJ.<.C r.K.8X|.g.e.g.h.|. XqXW. XoXqXW.oX[.[. X X[. XqX}.oXq.i.h.k.8XwXL.w.e *.J.0X# @ + ; ",
"s i i c 9Xs.  , ). X XwXJ.A.A.A.e.M. XoX XW. XoX X}.}. XoXoX X[.H.a.n.n.n.L.).).wXoXn.a i.jXw i i s ",
"Y Y Y # 3.$.A F.).8X|.E.fXeXXXdXH.m.j.W.oXrX}.}.}.qX X/.}.qXW.m.h.R.dXdXeX}.}.eXoX/.9X] C i.@ Y Y Y ",
"Y Y Y r n + [ eXXXXX|._.9XF.' [ /.E.L.}.}.oX[. X X8X X).[. XW.F.8XH.-.W k.fXoX).).oXdX$.n y X Y Y U ",
"Y Y Y % c r 3.).oX).8X8X<.p A XX[ k. X XoX}.8X X X}. XoXoX X8XfXa.R > E.a.<.XXXXoX|.XX$.> c A Y Y Y ",
"U U Z c Z c ' 9X_.8X9XXX$.p t [ p e.8XoX}.oX/.wX}.XXoX|.8XXX/.eXq.t e ' R [ 9XXX9X_._.$.% Z C Y U E ",
"; > > c `.q.#.9XgX^.^.oXoXs.W n H.).8X|.XX8X|.}.wX8X|./. XXXoXoX9XT.R ; b.XX|.XXXX_.zX> t ; ; > , , ",
"u u u > ~.:.L ^.^.gXgX^.wXXX|.XX|.wX|.|.oX|.oX}././.oXoXeX).|.[.).).9XXX|.9X_.XX_.sXT.u u u u u , > ",
"Y Y Y e r r r m (.9X_.^.XXXX).XX|.oX|.|.oXoXeXlXfXeXeXF./.|.oXoXdX_.|._.9XXX).9X9Xl.I Y Y Y Y Y u + ",
"Y Y Y I I Y Y + d.^.gXgXXX_._.XXoX).oX|.|.E.h.g.k.m.h.e h.wXoX}.).0XXX^.9XXX9XL.%.< I Y Y Y Y Y u > ",
"Y Y Y Y Y Y Y i.q.i.l.Z.XXgXhX_.|.E.8X}.).R.4.<.<.1.r.' H.wXE.|.|.`.wXjXL.l.G.z W > I Y Y Y Y Y u > ",
"U Y Y Y Y Y Y Y Y U < t q.i.n.wXwXwXeX8XwXeX8XlXlXfXeXeXlXwXoXhXwX|.s.h.W + n < U > I Y Y Y Y U e + ",
"e e , , , e , e u e * Z %.W < u.y.s.y.y.s.y.e.e.q.e.q.s.y.w.z.w.s.q.  $.u.3.z < > ; , , , , , , ; + ",
"e e , ; ; , , , e , * J Z.Z.;.p.g 1 4 4 1 ~ 7.7.:.u.&.f 3 3 2 4 6 l u.D.G.d.Z & > , , , > > > , , , ",
"Y Y Y > e Y U U Y Y v & Z.~.~.^ ~ Q 4 3 6.z.S.S.G.Z.:.~ ~ Q Q Q &.Z.~.Z.D.Z.v * Y Y Y Y U U Y U U Y ",
"Y Y Y , u Y Y Y U Y Y & +.J @.B x / z.p.S.P.D.+.>.P b x V k 8 1 ^ @.J P ;.J l Y Y Y Y Y Y Y Y Y Y Y ",
"Y Y I , u Y Y Y U Y Y Y #.& v & 5 &.P.S.c.b.x.l l & b H 5 k ~ 7 x & B v = +.Y Y Y Y Y Y Y Y Y Y Y Y ",
"Y Y U > e U Y Y Y Y Y Y >.v v H 7 ! ! Q ~ ~ ~ ~ B B K Z r | x.S.+.v b B Z ;.Y Y Y Y Y Y Y Y Y Y Y Y ",
"u u u ; > u u u u u u i +.l J x 7 k ~ ~ ! ~ ~ 6 5 6 v c l @.b.D.:.B v b 6 #.u u u u u i u u u u u u ",
"; ; + ; > , > ; ; ; ; v J l & J z =.G.G.b.S.b.K J S G G D S G S b v l l J l P ; ; ; > > ; - + ; ; ; ",
"U u ; i I U U U U U s l +.@.+.m < =.b.u.x.x.p.V B l D G F D S S B l J ^ +.+.& I U U I I I , > I U Y ",
"Y s u U Y Y Y Y Y Y U l (.kX'.x V k 8 Q Q 4 8 8 7 f N c z z L z c v v '.kX(.& Y Y Y Y Y Y e > Y Y Y ",
"Y Y Y Y Y Y Y Y Y Y I $ d.D.Z.B 7 8 ! Q Q Q Q 8 g f N Z L t c c L r l d.G.d.$ Y Y Y Y Y Y e , Y Y U ",
"Y Y Y Y Y Y Y Y Y Y U % l = & $ l < N y f 6 f 5 % l b * S l l v c l l *   l Y Y Y Y Y Y Y e > Y Y Y ",
"i s I s s I I I I s i @ e I s i i 3.m L L L ^ x u.; C v P +.O.^ L P i s I I s i s I s s s , > i s I ",
"> > ; ; ; > ; ; > > ; + > > ; ; ; P.5 | &.6.&.6 A D.- #.+.=.=.#.c %.@ ; > > ; + + ; + + ; - - ; > > ",
"s i i s s s s i i s s i s s s u - S.6 / K K ^ * s i i P Z Z K ^ z 4., + ; e i s i i s s i i i i e ; ",
"Y Y Y Y Y Y Y Y Y Y Y Y Y Y Y i ; #.v m z l F j Y Y Y G D v x N v m :.; > i Y Y Y Y Y Y Y Y Y Y u + ",
"Y Y Y Y Y U Y Y Y Y Y U Y Y Y s > * W z F F F j Y Y Y G b J B c l Z * , Y Y U Y Y Y Y Y Y Y Y Y u + ",
"Y Y Y Y Y Y Y Y Y i u Y Y Y Y i > I Y Y Y Y Y Y Y Y Y Y Y Y Y Y Y Y u , Y Y Y Y Y Y Y Y Y Y Y Y u + ",
"Y Y Y Y Y Y Y Y Y e > Y Y U Y i + s Y Y Y Y Y Y Y Y Y Y Y Y Y Y Y Y u > U Y Y Y Y Y Y Y U Y Y Y u + "
};
