/* XPM */
static char *result[] = {
/* columns rows colors chars-per-pixel */
"50 50 196 2 ",
"   c #1F170E",
".  c #22190F",
"X  c #251B11",
"o  c #20170E",
"O  c #1E160E",
"+  c #1E170E",
"@  c #1C160E",
"#  c #1C160F",
"$  c #1D160E",
"%  c #1B160F",
"&  c #1B150F",
"*  c #231A10",
"=  c #241B10",
"-  c #251B10",
";  c #221910",
":  c #251C11",
">  c #281E12",
",  c #362716",
"<  c #352515",
"1  c #332514",
"2  c #322414",
"3  c #312314",
"4  c #312313",
"5  c #312315",
"6  c #322415",
"7  c #312415",
"8  c #271D11",
"9  c #302315",
"0  c #332414",
"q  c #342515",
"w  c #372716",
"e  c #352616",
"r  c #2F2214",
"t  c #312414",
"y  c #352615",
"u  c #382816",
"i  c #332415",
"p  c #2E2112",
"a  c #2E2113",
"s  c #392816",
"d  c #1E1810",
"f  c #322515",
"g  c #4B351C",
"h  c #4E361D",
"j  c #4D361D",
"k  c #4A341C",
"l  c #48321B",
"z  c #4B341C",
"x  c #4C351C",
"c  c #2B2013",
"v  c #4F371D",
"b  c #4E371D",
"n  c #4D351C",
"m  c #48321A",
"M  c #49331B",
"N  c #412D18",
"B  c #3D2B18",
"V  c #50381D",
"C  c #45311A",
"Z  c #4A331B",
"A  c #47321B",
"S  c #261C10",
"D  c #302314",
"F  c #49321B",
"G  c #49331C",
"H  c #4D361C",
"J  c #412E19",
"K  c #23190F",
"L  c #4A331C",
"P  c #46311B",
"I  c #2B1F12",
"U  c #3F2C18",
"Y  c #432F1A",
"T  c #21190F",
"R  c #362615",
"E  c #46301A",
"W  c #46311A",
"Q  c #49341C",
"!  c #281D11",
"~  c #47311A",
"^  c #48331B",
"/  c #45301A",
"(  c #2A1E11",
")  c #2A1E12",
"_  c #291F13",
"`  c #2A1F12",
"'  c #291E12",
"]  c #291F12",
"[  c #2C2012",
"{  c #2D2113",
"}  c #291E11",
"|  c #1E170F",
" . c #21180F",
".. c #2C1F12",
"X. c #2F2213",
"o. c #271C11",
"O. c #261C11",
"+. c #271D12",
"@. c #281D12",
"#. c #2E2213",
"$. c #291D11",
"%. c #261D12",
"&. c #302214",
"*. c #47321A",
"=. c #48331C",
"-. c #3A2916",
";. c #20180E",
":. c #3E2B18",
">. c #4A341B",
",. c #442F19",
"<. c #2D2013",
"1. c #241A10",
"2. c #3E2C18",
"3. c #3D2B17",
"4. c #432F19",
"5. c #392916",
"6. c #4C351D",
"7. c #402D19",
"8. c #3C2A17",
"9. c #422E19",
"0. c #2C2013",
"q. c #332515",
"w. c #372816",
"e. c #372715",
"r. c #302213",
"t. c #231A0F",
"y. c #201810",
"u. c #44301A",
"i. c #3A2A17",
"p. c #43301A",
"a. c #46321B",
"s. c #4C341C",
"d. c #422F19",
"f. c #4B341B",
"g. c #4C361D",
"h. c #3C2A18",
"j. c #50371D",
"k. c #3F2D18",
"l. c #3B2917",
"z. c #3C2B18",
"x. c #3E2B17",
"c. c #3F2D19",
"v. c #3D2C18",
"b. c #3D2A17",
"n. c #3C2B17",
"m. c #1D170F",
"M. c #1F180F",
"N. c #20180F",
"B. c #1F170F",
"V. c #3A2816",
"C. c #402D18",
"Z. c #3B2A17",
"A. c #3A2A18",
"S. c #392817",
"D. c #3B2A18",
"F. c #342514",
"G. c #402C18",
"H. c #352716",
"J. c #1E1710",
"K. c #432E19",
"L. c #45311B",
"P. c #443019",
"I. c #211910",
"U. c #221A10",
"Y. c #201910",
"T. c #241A0F",
"R. c #2F2314",
"E. c #241B11",
"W. c #362616",
"Q. c #312213",
"!. c #2E2214",
"~. c #392917",
"^. c #2B1F13",
"/. c #47311B",
"(. c #3A2917",
"). c #452F19",
"_. c #281E13",
"`. c #291E13",
"'. c #2A1F13",
"]. c #2E2114",
"[. c #261B10",
"{. c #261C12",
"}. c #453019",
"|. c #271C10",
" X c #2D2012",
".X c #322314",
"XX c #342616",
"oX c #342615",
"OX c #1F1810",
"+X c #1D160F",
"@X c #4E361C",
"#X c #382817",
"$X c #382715",
"%X c #2D2114",
"&X c #221A11",
"*X c white",
/* pixels */
"  . X o O O O + O @ # O $ % + $ & $ O O * =   O   - . O O $ % $ O & $ O O . X   O O O $ & $ +   ; : ",
"$ > , < 1 2 3 4 2 5 5 2 6 7 = 8 9 2 0 q w w 2 2 2 e q 2 q 2 r 3 2 9 t 2 2 y u i 2 2 2 t 9 3 p * a s ",
"d f g h j k l l z z k z j x c q z z x v v b z z z k k g b n m k g z z z k n v g k k z z z M N 8 B V ",
"C M h Z M k k z h x z h j A S D g j n F k g k x h k x h x k G H b h b H l m F k k k j b h g J K u x ",
"n H j M M k k g v g L j x P - I U k x l G k k j b L z j z z x j j j j n F l l g g k j j x n Y T R k ",
"E A G G G G G k h M W G Q C - T ! J k G G G G x H ~ A G G z h k G G G G G G Q j x G G ^ W x / . < ~ ",
"( ) _ ` I I ' ] [ I I r { } | |  .! I I a r I ..[ ( ( I ' ` [ I I I I ` ' ` I [ ..I I I ( X.r = o.( ",
"! * | O.} ( 8 O.! ! } a I ! +.@.} ! -   ) #.) $.! $.} $.@.@.! ! $.$.$.! %.@.( } ! ! . . $.[ a &.[ $.",
"E w +.J k H *.W ^ W E ^ =.^ ^ ^ ^ ~ -.;.:.h H F E l ^ M x >.E A ^ ^ ^ ^ ^ z n G A ,.<.r A W ~ H z ^ ",
"n s 1.N >.x l l j x x j x k k g j z 2.= 3.z x k M k x j v H M k k l z j k g x j 4.2 - a x x x x g k ",
"v 5. .U F G F Z h b b b x k k g b 6.7.O.8.l k k z k x b b j k k G m x b k k k b J `  .[ n b j k k z ",
"6.w  .9.k m n h g g g g g k l M g v 9. .8.g k j b F M g g g z z z k h v l M z g k P ! ( ~ k g z j v ",
"y 0.* q , 0 R R q.q q q , w.0 0 y e.r.  <.y u w R 0 0 q q q q.q q q R e.R w u u w q 1.1.2 q q q.y e.",
"O * ' ' o.t.. . y.T K . - ! *  .  T . t.K 1.@.- . . . . . T y.. K . . 1.' ' ' ' O.K t.t.K . T y.T . ",
"+ r./ 9.,.A / Y Y W A u.9.9.u.y ;.i.u.p.W ~ 9.4.Y Y Y Y p.Y Y W ~ p.W l M a.u.u.W A u.u.A 4.N Y 9.N ",
"$ t z >.s.j g k k x x 6.g >.g i.* d.x M x H f.k z x 6.x k k g.v b z x n j j x x j j j j j k M x k l ",
"& 9 g h j k k k k l m h v b g h.8 / n E ^ g v x k b v b l Z v v h k l *.k x v v j k h j k k g b x k ",
"& 6 v 6.j v v H F M k x x x Z s . d.u.X.J 6.j.x F g x x k z x x j v x k z g x x j b f.Z z z k Z k z ",
"# { 9.7.7.J J k.l.z.2.B B B 8.r.;.w w = y U J x.8.B 2.c.2.2.2.2.2.7.U 2.2.2.v.B 2.J b.8.2.2.B l.n.2.",
"  ;. .O.- ;.| m.m.M.N.| B.;.;.;.  ;.;.o ;.;.;.;.;.;.* O.. ;.;.;.N.| M.;.;.;.N.| B.;.;.;.;.;.N.m.B.;.",
"U 8.V.C.k.Z.Z.A.A.B 2.S.I T -.2.Z.Z.Z.s l.n.U B Z.8.&.K < V.s 3.2.D.Z.u - X.n.v.B Z.' ` Z.Z.Z.s 8.U ",
"v x F h j k g x x j H M F.1.l h g x z M Z g v j x x w N.G.F M H h g z P D z.x v h M { r G g g l s.h ",
"k k k k M ~ n v v Z m k u > / z k h v b Z m k j b g H.J.2.Z b x k k l m x g k b x E ! ( W x h k l ~ ",
"k x j j x M >.z j k M z , - 4.M M x j j k Z j j x Z y N.7.z g.Z M k z x j x k z >.A ! I f.z z j z M ",
"/ A M M l u.K.K./ C C P 2 T b.9.9.u./ / / P k A u.,.0  .v.L.u.K.K./ A ^ C / / 9.4.p.! I ^ P.4.M A P ",
"t.1.1.- * I.U.t.t.t.= ' 1.  . ; Y.I.U.t.t.- ` o.1.' =   t.* I.; t.t.U.U.* t.t.t.T.= = = 1.t.t.1.! I ",
"2 0 0 - O.r 3 2 2 2 0 u y 2 2 3 R.E.: 3 1 q W.0 4 e q 3 T * 9 t 2 q 3 r 3 0 q 2 ` o 3 y Q.0 q 2 > I.",
"k j H r 2 ~ k z k k g v j k k z G !.D Q h b g M m k z l : c k z x v >.m k j v 6.~. .7.k m n b g 7 # ",
"k x h 4.4.G H j k k k F M k k x n r r ~ k x h g k h g.l ^.D k j j g l m j v v x 5. .4.j G k x b w * ",
"M z j M Z x j j k G M l M k g x z <.a F k z j j x j x /.` &.M x j k Z >.j j j g (.* 4.h x x x n y U.",
"W l G G z h k G G A ~ G G Q j z ).! [ H z G G x j k l ,.S ..E ^ G G x j k G G k Z.8 J g h h x ~ r % ",
"X.<.I I ..[ I [ &.[ } ' _.`.'.` } M.y.'.` I I ..[ `.' }  .K ( ` I I '.'.I I ` ' :  .! I '.'.'.( t.$ ",
"].0.} ;.. ! ! } a ..} > +.%.%.8 ! +.+.%.' ( } $.! +.+.! N.. ( $.[.  = > ! } ( +.+.} ( } O.{.+.! $.} ",
"=.z k 8 [ ^ W W ^ g H H z ^ =.A / A =.^ g x G ^ ^ ^ =.L.E.0.n l 8.;.Z.j G z n G ^ ^ x z / A l E A ^ ",
"j x m ` D k x z l z x >.k k k k M n x l z g l z j z k G D.c.x n 9.- z.x l x v M k j 6.g M k z x z k ",
"b z ).I 3 G j n m M k l M k z g z M l ~ M k l x h k k k z k k h / o.D.k l z h m Z h g k g k k h x z ",
"g Z }.|. X~ k g k k g v z l h v h 6 i k k g v j z l M z z L m z J T (.6.v j z m M g z x v >.m m x v ",
"q q .X. S R y q q q y (.e.0 R , XXO.8 q q oXe XXq.6 i q q q 0 q.].  [ y e.y q.0 0 q w u e.F.0 0 < e.",
".  .  . - ' = . K . K - 1.. K T y..  .+  .. OXOXOX+XM.K . . K Y.Y.t.K . . T y.. . t.8 o.. o   . . K ",
"u.0 ;.V.9.u.u.u.A C 2.t.2 u.A W Y 9.R +X, Y C.9.c.@.q l u./ A u.u.A / Y N 9.Y Y / A 4.9.Y I - J W l ",
"g U 3 / z k L k j 6.p.T q.k j j x z 9.r J z f.z P 8 y n x x x z x v g.k M k 6.z x j z k k { o.k n x ",
"k k z h j k l l k k Y y.3 m G x v v j k k g v x / t.r.m H x ~ M g b x k k j b z k k h h k <.! x f.~ ",
"l z b g.g z H H z g p.OXq.z z k Z g x g j h 6.k 4.t.4 m z H @Xx k Z k g b j x M z b j x k { o.G z k ",
"3.U J 2.2.7.J J 7.U #XM.!.7.2.3.Z.z.B 2.J d.2.3.$X. I 8.B 7.Y k.B Z.3.U 4.7.B l.B J 2.B B } = 8.c.7.",
"8 = ;.;.t.8 . . 8 * ;.  * o.T ;.;.| | ;.- O. .;.;.  o ;.;.t.8 . ;.;.;. .O.1.;.| B.;.| | ;.o o ;.1.8 ",
"2.8.V.:.U 2.z.Z.8.:.2.8.B 2.k.2 ;.q i.s n.v.8.B 2.-.8.U -.l.2.z.Z.8.)   N.a n.2.8.V.B B Z.-.-.8.<. .",
"z Z F h j k g z l x b z z x v 3.. J g l k g g H @XF z b Z M x x g k 3  .o.5.g b x F n h x M F k 2 O ",
"k k k k M ~ n h k k k ~ z b x z.8 / h k j h k F m G k k k g v v n ~ 2 I M Z ~ k k k l Z v x G m 4 + ",
"k g n M l M g x k i.XXM z >.z (.U.9.6.k k z H k M x x k k z x z f.s.2 ! M x z k g j Z M f.k k x 2 @ ",
"k x v l l k k k k %X&Xz z ~ k #X| c.z k l l v x z v j k k k k m F v 3 - P j v z x v g M ~ M g v q.& "
};
