/* XPM */
static char *result[] = {
/* columns rows colors chars-per-pixel */
"50 50 120 2 ",
"   c #242516",
".  c #292616",
"X  c #272817",
"o  c #2A2917",
"O  c #222519",
"+  c #262A1B",
"@  c #2A2C1A",
"#  c #2B3217",
"$  c #2D331D",
"%  c #2F391D",
"&  c #32351E",
"*  c #313C1D",
"=  c #282F20",
"-  c #273020",
";  c #2C3421",
":  c #2E3925",
">  c #313621",
",  c #333C23",
"<  c #3A3F24",
"1  c #313E28",
"2  c #35411D",
"3  c #364323",
"4  c #3A4526",
"5  c #374A23",
"6  c #3B4C25",
"7  c #36432A",
"8  c #3B452A",
"9  c #3D4B2C",
"0  c #3C5026",
"q  c #3E522A",
"w  c #3F582B",
"e  c #3D4D32",
"r  c #414C2C",
"t  c #43532D",
"y  c #49562E",
"u  c #445B2D",
"i  c #424F30",
"p  c #445433",
"a  c #495432",
"s  c #455B32",
"d  c #4B5B34",
"f  c #4C5E3A",
"g  c #515E36",
"h  c #525D39",
"j  c #4A632F",
"k  c #466131",
"l  c #4C6235",
"z  c #4C6A35",
"x  c #4E6239",
"c  c #536437",
"v  c #516C37",
"b  c #53643A",
"n  c #586739",
"m  c #546B3A",
"M  c #5A6C3D",
"N  c #517036",
"B  c #55733D",
"V  c #5A733B",
"C  c #57793E",
"Z  c #5B7A3D",
"A  c #63763F",
"S  c #60783F",
"D  c #566B40",
"F  c #5B6D41",
"G  c #5D7241",
"H  c #577C41",
"J  c #5C7B42",
"K  c #617543",
"L  c #657B45",
"P  c #687E46",
"I  c #677D48",
"U  c #6A7F48",
"Y  c #646262",
"T  c #5D833F",
"R  c #60823E",
"E  c #5E8341",
"W  c #638444",
"Q  c #6A8446",
"!  c #648944",
"~  c #6B8C45",
"^  c #65874A",
"/  c #6C834A",
"(  c #668A48",
")  c #6C8C4A",
"_  c #71864B",
"`  c #738C4D",
"'  c #6E9347",
"]  c #6D914A",
"[  c #73934C",
"{  c #79924E",
"}  c #769A4F",
"|  c #748D50",
" . c #769151",
".. c #7A9552",
"X. c #7D9A54",
"o. c #7CA354",
"O. c #7FA859",
"+. c #809D55",
"@. c #839F59",
"#. c #83A256",
"$. c #82AB57",
"%. c #86A45A",
"&. c #88A55B",
"*. c #85AD5B",
"=. c #8CAA5D",
"-. c #8AB25E",
";. c #859778",
":. c #8EAC61",
">. c #91AE63",
",. c #8AB361",
"<. c #8EB863",
"1. c #95B565",
"2. c #95BF66",
"3. c #92BC68",
"4. c #97C067",
"5. c #96C16C",
"6. c #98C069",
"7. c #808684",
"8. c #9DB596",
"9. c None",
/* pixels */
"9.9.9.9.9.9.9.9.9.9.9.9.9.9.9.9.9.9.9.9.9.T E E E E ! ! 9.9.9.9.9.9.9.9.9.9.9.9.9.9.9.9.9.9.9.9.9.9.",
"9.9.9.9.9.9.9.9.9.9.9.9.9.9.9.9.9.E E E R o.4.4.4.4.$.' T 9.9.9.9.9.9.9.9.9.9.9.9.9.9.9.9.9.9.9.9.9.",
"9.9.9.9.9.9.9.9.9.9.9.9.9.9.9.T ! O.-.,.*.$.$.$.*.4.4.O.' 9.9.9.9.9.9.9.9.9.9.9.9.9.9.9.9.9.9.9.9.9.",
"9.9.9.9.9.9.9.9.9.9.9.9.9.9.( O.*.-.*.*.#.8.;.L E } ,.5.$.T 9.9.9.9.9.9.9.9.9.9.9.9.9.9.9.9.9.9.9.9.",
"9.9.9.9.9.9.9.9.9.9.9.9.9.9.] 5.5.o.' R Z 7.Y r k v ) -.-.' z 9.9.9.9.9.9.9.9.9.9.9.9.9.9.9.9.9.9.9.",
"9.9.9.9.9.9.9.9.9.9.9.9.9.9.E *.o.' R z t 4 # % 0 s z ! } } Z 9.9.9.9.9.9.9.9.9.9.9.9.9.9.9.9.9.9.9.",
"9.9.9.9.9.9.9.9.9.9.9.9.9.9.z E ! Z j 0 6 6 2 6 6 w u z ~ o.' z 9.9.9.9.9.9.9.9.9.9.9.9.9.9.9.9.9.9.",
"9.9.9.9.9.9.9.9.9.9.9.9.9.9.w N C z 0 6 t u u 0 6 5 t v ~ o.! k 9.9.9.9.9.9.9.9.9.9.9.9.9.9.9.9.9.9.",
"9.9.9.9.9.9.9.9.9.9.9.9.9.9.5 j j u 0 0 u 6 * % * 3 t N ' } S j 9.9.9.9.9.9.9.9.9.9.9.9.9.9.9.9.9.9.",
"9.9.9.9.9.9.9.9.9.9.9.9.9.9.9.5 2 2 2 2 2 9.9.# % 2 t V R ` V j 9.9.9.9.9.9.9.9.9.9.9.9.9.9.9.9.9.9.",
"9.9.9.9.9.9.9.9.9.9.9.9.9.9.9.9.9.9.9.9.9.9.9.# % % 0 V ! Z v j 9.9.9.9.9.9.9.9.9.9.9.9.9.9.9.9.9.9.",
"9.9.9.9.9.9.9.9.9.9.9.9.9.9.9.9.9.9.9.9.9.9.9.# # 3 u W ` B z 9.9.9.9.9.9.9.9.9.9.9.9.9.9.9.9.9.9.9.",
"9.9.9.9.9.9.9.9.9.9.9.9.9.9.9.9.9.9.9.9.9.9.9.% * 2 j ) [ z s 9.9.9.9.9.9.9.9.9.9.9.9.9.9.9.9.9.9.9.",
"z 9.9.9.9.9.9.9.9.9.9.9.9.9.9.9.9.9.9.9.9.9.9.2 2 r A [ ~ z 9.9.9.9.9.9.9.9.9.9.9.9.9.9.9.9.9.9.9.9.",
"6 z N 9.9.9.9.9.9.9.9.9.9.9.9.9.9.9.9.9.9.9.9.% 3 d [ [ V l 9.9.9.9.9.9.9.9.9.9.9.9.9.9.9.9.9.9.9.9.",
"9.q w x H H H W 9.9.9.9.9.9.9.9.9.9.9.9.9.9.% % 6 L +.~ B u 9.9.9.9.9.9.9.9.9.9.9.9.9.9.9.9.9.9.9.9.",
"9.9.9.q w s H ] ( C 9.9.9.9.9.9.9.9.9.9.9.9.* 4 c X.%.W v 9.9.9.9.9.9.9.9.9.9.9.9.9.9.9.9.9.9.9.9.9.",
"9.9.9.9.9.9.k z ! ) J 9.9.9.9.9.9.9.9.9.9.& < r A #.Q m 9.9.9.9.9.9.9.9.9.9.9.9.9.9.9.9.9.9.9.9.9.9.",
"9.9.9.9.9.9.9.u B } ) C 9.9.9.9.9.9.9.9.9.< 6 n X.X.v u 9.9.9.9.9.9.9.9.9.9.9.9.9.9.9.9.9.9.9.9.9.9.",
"9.9.9.9.9.9.9.9.B ( ( l 9.9.9.9.9.9.9.9.9.6 y A #.R d 9.9.9.9.9.9.9.9.9.9.9.9.9.9.9.9.9.9.9.9.9.9.9.",
"9.9.9.9.9.9.9.9.9.E J p 9.9.9.9.9.9.9.9.4 t A +.+.m t 9.9.9.9.9.9.9.9.9.9.9.9.9.9.9.9.9.9.9.9.9.9.9.",
"9.9.9.9.9.9.9.9.E E B 9.9.9.9.9.9.9.9.4 r d R #.~ l 9.9.9.9.9.9.9.9.9.9.9.9.9.9.9.9.9.9.9.9.9.9.9.9.",
"9.9.9.9.9.9.9.B E B k 9.9.9.9.9.9.9.9.4 r V +.` n t 9.9.9.9.9.9.9.9.9.9.9.9.9.9.9.9.9.9.9.9.9.9.9.9.",
"9.9.9.9.9.9.B E J l 9.9.9.9.9.9.9.9., 6 g { { A l 9.9.9.9.9.9.9.9.9.9.9.9.9.9.9.9.9.9.9.9.9.9.9.9.9.",
"9.9.9.9.9.B W H l t 9.9.9.9.9.9.9.9.* t A &.` l 9.9.9.9.9.9.9.9.9.9.9.9.9.9.9.9.9.9.9.9.9.9.9.9.9.9.",
"9.9.9.9.G W E l q 9.9.9.9.9.9.9.9.# r y { { W l 9.9.9.9.9.9.9.9.9.9.9.9.9.9.9.9.9.9.9.9.9.9.9.9.9.9.",
"9.9.9.9.E W m s 9.9.9.9.9.9.9.9.9., r A =.{ b s 9.9.9.9.9.9.9.9.9.9.9.9.9.9.9.9.9.9.9.9.9.9.9.9.9.9.",
"9.9.9.J ( J s 9.9.9.9.9.9.9.9.9.& , y [ =.P s 9.9.9.9.9.9.9.9.9.9.9.9.9.9.9.9.9.9.9.9.9.9.9.9.9.9.9.",
"9.9.9.B ^ H p 9.9.9.9.9.9.9.9.9.& r c +.+.n t 9.9.9.9.9.q t d b n c d d p t 9.9.9.9.9.9.9.9.9.9.9.9.",
"9.9.9.s ^ G 9.9.9.9.9.9.9.9.9.9.* r V &.{ y 9.9.9.9.9.d b V G L U Q U U K M b 9.9.9.9.9.9.9.9.9.9.9.",
"9.9.9.9 W M 9.9.9.9.9.9.9.9.9.9.3 t A =./ r 3 9.d c l b K L L L / ` +.+.{ _ P b p p 9.9.9.9.9.9.9.9.",
"9.9.9.7 J J l 9.9.9.9.9.9.9.9.& 4 c _ #.K 8 r d V L G c d d y r r y g n M _ X._ G b p r 9.9.9.9.9.9.",
"9.9.9., l W m r 9.9.9.9.9.9.9.% 4 m X.` d % d Q A c t r 4 , > & o @ & < r n U | | _ K h 8 > 9.9.9.9.",
"9.9.9.% 4 V W f 9 9.9.9.9.9.9.$ 8 M #.L 9 $ d b r , & @ o o o o . . . o > < r h K | | U b 8 , 9.9.9.",
"9.9.9.9.; d K J x 9 8 9.9.9.9.$ 8 M +.L 9 $ 8 r > o o o 9.9.9.9.9.9.9.9.o o o , i b _ +./ x 8 > 9.9.",
"9.9.9.9.# 8 b J J b s p p s r $ 9 M X.L t % $ @ o o 9.9.9.9.9.9.9.9.9.9.9.9.9.@ @ r F |  .K a 7 > 9.",
"9.9.9.9.9.& 9 l F J V G J D d $ r F ../ c < @ O 9.9.9.9.9.9.9.9.9.9.9.9.9.9.9.9.  ; p U X._ D e 1 9.",
"9.9.9.9.9.9.% , 9 a d b m M d ; 8 n _ _ F p & 9.9.9.9.9.9.9.9.9.9.9.9.9.9.9.9.9.9.O < F X. .J p 7 ; ",
"9.9.9.9.9.9.9.@ @ % > 3 9 p r $ < a K X.U b 9.9.9.9.9.9.9.9.9.9.9.9.9.9.9.9.9.9.9.@ 8 G .. .G p 7 = ",
"9.9.9.9.9.9.9.9.9.X # & , , > . > r F X...P F 9.9.9.9.9.9.9.9.9.9.9.9.9.9.9.9.9.9.7 f / ..| F p 1 @ ",
"9.9.9.9.9.9.9.9.9.9.9.9.$ $ @ @ > < h _ &.+.U G 9.9.9.9.9.9.9.9.9.9.9.9.9.9.9.9.i d L  .| L f e - O ",
"9.9.9.9.9.9.9.9.9.9.9.9.9.9.9.9.X > 8 b | &.&./ b d 9.9.9.9.9.9.9.9.9.9.9.9.h D F U | | I x e : + O ",
"9.9.9.9.9.9.9.9.9.9.9.9.9.9.9.9.. ; , e D ..:.&._ G h f f f a a i r a h h D I | +.+. ./ D p 7 ; + 9.",
"9.9.9.9.9.9.9.9.9.9.9.9.9.9.9.9.9.+ > < a F U ..X.X.+.&.:.:.X./ K F K / ..@.O.X...` I D f e ; = O 9.",
"9.9.9.9.9.9.9.9.9.9.9.9.9.9.9.9.9.9.@ > 8 i M / ` ..+.%.&.:.1.:.>.:.@.@.X.:. .| / D D p e 1 = = 9.9.",
"9.9.9.9.9.9.9.9.9.9.9.9.9.9.9.9.9.9.9.@ @ > i M G G L U _ ..#.&.:.:.@.+.| I G F D f e 7 1 ; O 9.9.9.",
"9.9.9.9.9.9.9.9.9.9.9.9.9.9.9.9.9.9.9.9.  = ; 8 i r a h M K K U I I I F F D f p e 7 1 : = = 9.9.9.9.",
"9.9.9.9.9.9.9.9.9.9.9.9.9.9.9.9.9.9.9.9.9.9.. @ ; % ; 1 8 9 i a h h a a e 7 1 1 : ; - O O 9.9.9.9.9.",
"9.9.9.9.9.9.9.9.9.9.9.9.9.9.9.9.9.9.9.9.9.9.9.9.X     @ @ - ; ; ; 1 ; : : : - - - O O 9.9.9.9.9.9.9.",
"9.9.9.9.9.9.9.9.9.9.9.9.9.9.9.9.9.9.9.9.9.9.9.9.9.9.9.9.X O O O O O O O O O O O O 9.9.9.9.9.9.9.9.9."
};
