/* XPM */
static char *_8220b7ed1b24d088929e0d4da0252faz5LXWY9g1KY6WRcp[] = {
/* columns rows colors chars-per-pixel */
"50 50 156 2 ",
"   c #2D2D2D",
".  c #273127",
"X  c #243C24",
"o  c #283F27",
"O  c #2A322A",
"+  c #333333",
"@  c #3A3A3A",
"#  c #1D4E1C",
"$  c #195C17",
"%  c #1B5619",
"&  c #1F5F1D",
"*  c #20541F",
"=  c #166414",
"-  c #186517",
";  c #176915",
":  c #186A16",
">  c #1D641C",
",  c #1C6B1A",
"<  c #20661F",
"1  c #216A1F",
"2  c #254325",
"3  c #2F462E",
"4  c #245423",
"5  c #215920",
"6  c #285D27",
"7  c #2D562C",
"8  c #295B28",
"9  c #30562F",
"0  c #3F453F",
"q  c #3C4F3C",
"w  c #355434",
"e  c #385537",
"r  c #375836",
"t  c #3C533B",
"y  c #226421",
"u  c #236B22",
"i  c #286F26",
"p  c #2C6A2B",
"a  c #30692E",
"s  c #267124",
"d  c #346733",
"f  c #336C32",
"g  c #337232",
"h  c #367935",
"j  c #3D773B",
"k  c #3D7A3C",
"l  c #403E40",
"z  c #444444",
"x  c #494749",
"c  c #4B4C4B",
"v  c #475246",
"b  c #4B514B",
"n  c #504E50",
"m  c #525252",
"M  c #555A55",
"N  c #5C5C5C",
"B  c #477D46",
"V  c #4E7F4D",
"C  c #5D715D",
"Z  c #636363",
"A  c #6B6B6B",
"S  c #627661",
"D  c #637A63",
"F  c #687B67",
"G  c #6E746E",
"H  c #757575",
"J  c #747B74",
"K  c #787778",
"L  c #7C7B7C",
"P  c #4C824B",
"I  c #50824F",
"U  c #548553",
"Y  c #588557",
"T  c #588957",
"R  c #5B865A",
"E  c #648B63",
"W  c #688D67",
"Q  c #6B8E6A",
"!  c #7F807F",
"~  c #769576",
"^  c #7D957D",
"/  c #809B7F",
"(  c #807F80",
")  c #828282",
"_  c #8B8B8B",
"`  c #859D84",
"'  c #8C908B",
"]  c #8B9B8B",
"[  c #939393",
"{  c #9B9B9B",
"}  c #87A086",
"|  c #8CA18B",
" . c #92A591",
".. c #97A897",
"X. c #97AA96",
"o. c #9AA79A",
"O. c #9DA99D",
"+. c #9CAC9C",
"@. c #9FAD9E",
"#. c #9BAD9A",
"$. c #A2A2A2",
"%. c gray64",
"&. c #A7A7A7",
"*. c #A4A4A4",
"=. c #A3ACA3",
"-. c #A3AFA2",
";. c #A6ADA6",
":. c gray67",
">. c #AAAFAA",
",. c #ADADAD",
"<. c #ABABAB",
"1. c #A0B0A0",
"2. c #A3B2A3",
"3. c #ACB1AC",
"4. c #ADB6AD",
"5. c gray69",
"6. c gray70",
"7. c #B2B2B2",
"8. c #B5B4B5",
"9. c #B6B6B6",
"0. c #B7B7B7",
"q. c #B7B6B7",
"w. c #B4B4B4",
"e. c #B7B8B7",
"r. c #B8B7B8",
"t. c gray72",
"y. c #B9B9B9",
"u. c #BAB9BA",
"i. c gray73",
"p. c #BBBBBB",
"a. c #BBBABB",
"s. c #BCBBBC",
"d. c #BCBCBC",
"f. c gray74",
"g. c #BDBCBD",
"h. c #BFBDBF",
"j. c #BFBCBF",
"k. c gray",
"l. c gray75",
"z. c #BBBBBB",
"x. c #C0BEC0",
"c. c #C0BFC0",
"v. c #C0BFC1",
"b. c #C2BFC2",
"n. c #C0C0C0",
"m. c #C1C1C1",
"M. c #C0C2C0",
"N. c #C2C1C2",
"B. c gray76",
"V. c #C3C3C3",
"C. c #C3C4C3",
"Z. c #C4C2C4",
"A. c #C5C5C5",
"S. c #C6C5C6",
"D. c #C7C6C7",
"F. c #C2C2C2",
/* pixels */
"                                                                                                    ",
"  + @ @ @ @ @ @ @ @ @ @ @ @ @ @ @ @ @ @ @ @ @ @ @ @ @ @ @ @ @ @ @ @ @ @ @ @ @ @ @ @ @ @ @ @ @ @ +   ",
"  + m c c c c m c c c c m c c c c m c c c c m c c c c m c c c c m c c c c m c c c c m c c c c m +   ",
"  + c c c c c n c c c c n c c c c n c c c c n c c c c c c c c c c c c c c c c c c c c c c c c c +   ",
"  + c c c e w r w r r w r w r r w r w r r w r w e N N Z N N N N Z N N N N Z N N N N Z N N c c c +   ",
"  + m c b > = : = ; ; = : = ; ; = : = ; ; = : = 1 J L ) L L ) L ) L L ) L ) L L ) L ) L L m c m +   ",
"  + c c c > = : = ; = = : = ; = = ; = = = = ; = 1 J L ) L L L L ) L L L L ) L L L L ) L H m c c +   ",
"  + c c c > = ; = = = = ; = = = i T U Y Y j = = < J H L H L L H L H L L H L H L L H L H H c c c +   ",
"  + m c b > = : = : : = : - , , I A.p.M.Z.` , , i J L ) L L L L ) L L L L ) L L ) L ) L L m c m +   ",
"  + c c c > = : = ; = = ; Q -.@.-.M.q.f.f.3.1.o.O.! H ) L L L L L L L L L ) L L L L ) L H m c c +   ",
"  + c c c > = ; = = = = = ^ f.p.q.f.6.p.p.6.v.q.q.[ ) L H L L L [ L L L H L H L L H L H H c c c +   ",
"  + m c b > = : = : ; - , / Z.f.p.f.q.M.M.r.f.q.M.M.%.L L L ) [ M._ L L L ) L L ) L ) L L m c m +   ",
"  + c c c > = : = = = k 1.>.f.f.[ x _ f.M.[ c _ f.f._ @ Z ) ,.) c A L L L L L L L L L L H m c c +   ",
"  + c c c > = ; = = = B v.6.p.p.[ N [ r.[ Z   ) f.f.)   N ) p.)   N L L H L H L L H L H H c c c +   ",
"  + m c b > = : = : = B M.e.M.M.p.M.q.6.@   O _ A.A._   Z ) f._ + Z L L L ) L L ) L ) L L m c m +   ",
"  + c c c > = : = = = 1 h ` v.v.[ c c c 5 % $ ^ v.f.)   N ) p.,.%.N z L L L L L L H L L H m c c +   ",
"  + c c c > = ; = = = u P Q } } D X X 2 = i P | s.f.)   N ) %.&.M.H N Z Z L H L L H L H H c c c +   ",
"  + m c b > = : - , : P C.U ; ; = : = : : P A.p.M.M._ + Z ( L [ A.p.6.@ c ) L L ) L ) L L m c m +   ",
"  + c c c > = ; E @.X.~ k u = = = : = 1 } O.M.q.6.M m A H L L _ M.q.:.+ x ) L L L H L L H m c c +   ",
"  + c c c > = ; R  .p.` = = = = = ; g U 7.q.f.{ _ c m ) H L L ) :.,.,.Z N Z H L L H L L H c c c +   ",
"  + m c b > = : = s 4.} : = : : - , ` M.M.p.A.N + L L ) L ) ) L ) &.M.M.)   Z ) ) L ) L L m c m +   ",
"  + c c c > = : = , j g : = = = j X.;.f.p.q.M.N + H ) 6.&.:.,.[ L %.p.f.)   Z L L H L L H m c c +   ",
"  + c c c > = ; = = = = ; = , k W M.q.p.p.&.[ Z N ) [ M.q.p.f.&.[ &.p.f.)   Z L L H L L H m c c +   ",
"  + m c b > - , - : : - , = s 4.p.A.p.M.M._ + _ M.M.p.A.p.f.f.p.A.p.M.A.) + Z L ! L ) L L m c m +   ",
"  + c c c C C D C S S C D C F 6.q.f.q.6.N Z { :.p.p.q.M.H m c H M.q.p.f.&.{ M 0 f p f a d c c c +   ",
"  + c c m H L ( K L L L ( ) [ q.q.f.q.,.@ M M.q.p.p.:.{ c   c H M.q.p.p.q.M.M . = = ; = > c c c +   ",
"  + m c m L L ) L ) L L ) %.M.M.p.A.p.6.@ N A.p.M.M._ +   @ 6.p.A.p.M.M.p.A.M O - = : = > b c m +   ",
"  + c c m H L L H L L H L { f.p.w.M.H M Z L M.q.p.p.&.[ _ [ q.q.M.q.f.p.6.f.M O - = : = > c c c +   ",
"  + c c m H L L H L L L L { f.p.w.M.N + H _ 6.,.p.p.q.M.q.f.f.:.{ [ { p.w.v.M O - = : = > c c c +   ",
"  + m c m L L ) L ) L L ) %.M.M.p.A.N + H L ) &.M.M.p.A.p.M.M._ +   z q.p.A.N O - = : = > b c m +   ",
"  + c c c H L L H L L H L { f.p.q.M.N + H L L ) _ P Q M.q.6.Z x   A [ q.6.f.M O - = = = > c c c +   ",
"  + x x c A H L H L L L L { f.p.q.M.H c Z Z A H J > j #. .] + + m [ f.s.w.v.M O - = : & 6 c x x +   ",
"    + z c c N ) L ) L L ) %.M.M.p.A.p.6.@   + Z J u = , - > O N M.p.M.M.p.A.N O - = : e c c z +     ",
"      @ c c M L H L L H L ) [ q.q.f.6.q.[ ) [ N z o X X X 3 ) [ f.6.p.f.[ N 7 % - = ; t c c @       ",
"      @ x c M H H L L L L H ) :.,.M.q.f.f.q.M.A c c c c x M q.q.M.q.p.%.G X % ; = > y t c x @       ",
"    +   + c c m A ) L L ) L ) L [ A.p.M.M.p.A.q.f.f.q.M.q.f.M.p.A.p.6.l 2 : = : ; 8 b c c +   +     ",
"        + c c c Z L L H L H L L _ f.6.f.p.6.f.6.p.p.6.f.6.p.p.q.M.K M 4 % ; = = = 8 c c c +         ",
"        + z x c Z H L L L L L L _ q.:.6.p.q.M.q.f.f.q.M.q.p.&.{ &.b X - = : = - < 9 c x z +         ",
"    +   +   + m c M L L ) L L L L ) L ) p.p.A.p.M.M.p.A.p.6.z + + * : : = : = > b c m +   +   +     ",
"              @ z c N Z L H L L H L H L _ _ [ _ ' Y V U I V 4 # * $ = = = ; 7 t c z @               ",
"    +           @ c c M H H L L L ) L L L H L K J > = ; = = ; = ; = = ; > y t c c @           +     ",
"    +   +     +   + c c m A ) L L ) L L L L ) L J u = : = : : = : = ; ; 8 b c c +   +     +   +     ",
"                    + @ c M N N Z L H L L H L H J < = ; = = = = ; 7 r r q c @ +                     ",
"    +         +       + c x c c M L H H L L ) K J 1 = : = - > & < t c c c c +       +         +     ",
"    +   +     +         + z c c c m c M L L ) L J 1 = : = > v c b c c c z +         +     +         ",
"                          + @ @ @ c c c N N Z N N e w r w e c c c @ @ @ +                           ",
"    +         +         +       + c x c c c c c c c c n c c c x c +       +         +         +     ",
"    +         +         +         +   + c c m c c c c m c c +   +         +         +         +     ",
"                                        @ @ @ @ @ @ @ @ @ @                                         ",
"                                                                                                    "
};
