/* XPM */
static char *_25640295d3f4286aff04994e6d88a4fzSm5YnZvLf7r7cCa[] = {
/* columns rows colors chars-per-pixel */
"50 50 168 2 ",
"   c #1D160E",
".  c #1F180F",
"X  c #1E1710",
"o  c #1F1810",
"O  c #20170E",
"+  c #21190F",
"@  c #241B10",
"#  c #291E12",
"$  c #252215",
"%  c #2D2214",
"&  c #2C2917",
"*  c #222519",
"=  c #292719",
"-  c #262B1D",
";  c #2B2B1A",
":  c #332515",
">  c #342817",
",  c #3A2917",
"<  c #322C19",
"1  c #3D2C18",
"2  c #2D331D",
"3  c #2F381B",
"4  c #32331C",
"5  c #3C331B",
"6  c #323C1D",
"7  c #393A1D",
"8  c #282F20",
"9  c #273020",
"0  c #2C3421",
"q  c #2E3925",
"w  c #313621",
"e  c #3A3720",
"r  c #343C23",
"t  c #3A3D23",
"y  c #313E28",
"u  c #422E19",
"i  c #45311B",
"p  c #4B351C",
"a  c #44391E",
"s  c #4B391E",
"d  c #50381D",
"f  c #443B21",
"g  c #4C3C20",
"h  c #36411D",
"j  c #364322",
"k  c #3B4426",
"l  c #3B4C25",
"z  c #35432B",
"x  c #3B452A",
"c  c #3D4A2B",
"v  c #3C5026",
"b  c #3E5329",
"n  c #3D4D32",
"m  c #454224",
"M  c #4A4424",
"N  c #414826",
"B  c #4B4B27",
"V  c #444629",
"C  c #424C2B",
"Z  c #4A4C2B",
"A  c #44532C",
"S  c #4A532C",
"D  c #455B2D",
"F  c #4B5C2F",
"G  c #52532E",
"H  c #525A2F",
"J  c #424F30",
"K  c #494E30",
"L  c #455433",
"P  c #4A5532",
"I  c #465B33",
"U  c #4B5B33",
"Y  c #4C5E3A",
"T  c #515533",
"R  c #515E34",
"E  c #4B622F",
"W  c #4D6334",
"Q  c #4D6A35",
"!  c #4E6239",
"~  c #536336",
"^  c #536C36",
"/  c #526439",
"(  c #59653A",
")  c #546B3A",
"_  c #5A6C3D",
"`  c #547037",
"'  c #587037",
"]  c #55733D",
"[  c #5A733B",
"{  c #577A3E",
"}  c #5C7A3C",
"|  c #63763F",
" . c #60783F",
".. c #566B40",
"X. c #5A6D41",
"o. c #5D7242",
"O. c #577A40",
"+. c #5C7A42",
"@. c #617543",
"#. c #657B44",
"$. c #687E46",
"%. c #677D48",
"&. c #6A7F48",
"*. c #646262",
"=. c #60823E",
"-. c #5E8342",
";. c #638444",
":. c #6A8546",
">. c #658843",
",. c #6B8C46",
"<. c #65874A",
"1. c #6C834A",
"2. c #678B48",
"3. c #6C8C4A",
"4. c #71864B",
"5. c #738C4D",
"6. c #6E9347",
"7. c #6E9148",
"8. c #6B924C",
"9. c #74934D",
"0. c #79924E",
"q. c #739A4F",
"w. c #77994F",
"e. c #779C4F",
"r. c #748D50",
"t. c #769151",
"y. c #7A9552",
"u. c #769D50",
"i. c #789D51",
"p. c #7D9A54",
"a. c #7AA052",
"s. c #7DA252",
"d. c #79A154",
"f. c #7FA557",
"g. c #7DA454",
"h. c #809D55",
"j. c #839F59",
"k. c #81A657",
"l. c #83A156",
"z. c #82AB57",
"x. c #86A45A",
"c. c #88A55B",
"v. c #83AA58",
"b. c #85AC59",
"n. c #86AD5A",
"m. c #86AF5B",
"M. c #83AC5E",
"N. c #86AF5E",
"B. c #8CAA5D",
"V. c #8BB15E",
"C. c #8BB35E",
"Z. c #89B25F",
"A. c #859778",
"S. c #8EAC61",
"D. c #91AE63",
"F. c #89B360",
"G. c #8AB060",
"H. c #8AB461",
"J. c #8CB462",
"K. c #8EB863",
"L. c #95B565",
"P. c #95BF66",
"I. c #92BC68",
"U. c #97C067",
"Y. c #96C16C",
"T. c #98C069",
"R. c #808684",
"E. c #9DB596",
/* pixels */
". + @ O . . . . . . . . .   . .   @ @ @ $ W -.-.-.;.>.F @ .   . .   . . . + @ . . . . .   . . . @ @ ",
". # : : : : : : : : : : : : @ @ < W ^ ^ ` e.K.I.I.K.v.,.S : % : : : : : : : , : : : : : : : % @ % , ",
"o : p p p p p p p p p p p p < E [ f.F.H.m.z.m.m.Z.P.U.m.>.S p p p p p p p p p p p p p p p p u @ , d ",
"i p p p p p p p p p p p p g W d.M.Z.m.m.f.E.A.#.;.q.J.T.k.} B p p p p p p p p p p p p p p p u + , p ",
"p p p p p p p p p p p p p M 2.Y.I.f.6.>.[ R.*.C D ^ 3.F.Z.7.W p p p p p p p p p p p p p p p u + : p ",
"i i p p p p p p p p i p p m -.N.a.6.=.Q b k 4 6 v D Q >.i.e.' M p p p p p p p p p p p p i p i + : i ",
"# # # # # # # # % # # % % < Q -.>.} E b l l l k l A D Q ,.s.,.F & # # # # # # % # # # # # % % @ @ # ",
"# @ . @ # # @ @ # # # % # & b ` } Q b l A D A b l l b ^ 7.s.>.b % # # # @ # # # # # + + # % % : % # ",
"i : @ u p p i i p i i p p a k E F D v v D l 6 3 6 j A ' 7.w.} A p p p p p p p p i u % : i i i p p p ",
"p , @ u p p p p p p p p p p a j j h 6 6 j a p 5 3 j A [ ,.,.[ D p p p p p p p p u : @ % p p p p p p ",
"p , + 1 p p p p p p p p p p p a a a 5 $ 1 i p 5 3 6 l [ >.} ^ D p p p p p p p p u # + % p p p p p p ",
"p : + u p p p p p p p p p p p p p p u + , p p 5 3 j D ;.9.] U M p p p p p p p p p i # # i p p p p p ",
"N & @ : : : : : : : : : : , : : : : : . % : , 4 6 j W 3.9.^ A : : : : : : : , , : : @ @ : : : : : : ",
"W k t & @ + + + @ + + + @ # @ + . + + + + @ # ; r b [ 9.:.I r @ + + + @ # # # # @ + + + + + + @ + + ",
"j Q ` Z M B M a u i p i u u i : + , i i i i 5 4 r U 5.9.[ A i i i i i p p i i i i i i i i u u u u u ",
"@ j A Q O.O.{ R M s p p p p p , @ u p p p p 7 6 l #.l.3.^ B p p p p p p p p p p p p p p p p p p p p ",
"  : s N A D ] 8.>.H p p p p p , @ i p i p p 7 k ~ p.l.$.S p p p p p p i p p p p p p p p p p p p p p ",
"  : p s s s S Q >.>.H p p p p , + u i % u 7 r C $.l.:.H s p p p p p p p p p p p p p p p p p p p p p ",
". % u u u u i N [ q.:.S 1 , , : + : : @ : 7 k ~ p.p.^ N 1 1 1 1 1 u 1 1 1 1 1 , 1 u , , 1 1 , , , 1 ",
". + + @ @ + . $ A ,.2.c . + + + . + + + ; k S :.l.;.x & + + + + + . . + + + + . O + + + + + + . . + ",
"1 , , u 1 , , , S >.+.l % + , 1 , , , 5 j A _ h.h.^ t + : , , , 1 , , , @ % , 1 , , # # , , , , , 1 ",
"p p p p p p p M ^ -.^ m : @ p p p p p t k U 1.l.3.F 7 + u p p p p p p i : , p p p p % % p p p p p p ",
"p p p p p i g ( -.] Z p , # i p p p s k A [ y.9.^ M : X 1 p p p p p p p p p p p p i # # i p p p p i ",
"p p p p p s ~ -.O.U m p : @ u p p p t c R 0.0. .U M : + u p p p p p p p p p p p p i # # p p p p p p ",
"i i p p s R ;.+.U m i i : + , u u i t A | c.5.W m u : + 1 i i u u i i p i i i u u i # # p i u p i i ",
"+ @ @ @ A ;.;.W 4 @ @ # @ . + @ @ 2 k U 0.y.$.U 2 # @ . + @ @ @ + + @ @ @ + + + + @ @ @ @ + + @ # # ",
": : : @ ~ ;.^ k : : : , : : : : & 3 C | B.9.^ k : : : : + @ : : : : : % : : : : # O : : : : : : # @ ",
"p p s S ;.O.I m p p p p p p p p 7 r S 5.B.#.I m p p p p @ % p p p p p p p p p p , + u p p p p p : . ",
"p p s ~ 2.] Z s p p p p p p p a 4 k ( h.h.^ V s p p p a r t Z G G S Z Z V M g p , + u p p p p p : @ ",
"p p p S <.] M p p p p p p p p p r C [ c.5.I f p g m m S / _ o.#.1.1.1.$.@._ G M t & u p p p p p : @ ",
"i p p k ;.] M p p i i p p p p a k A #.B.1.C t f S ! ! / @.#.#.#.1.5.y.y.0.5.$./ P t f s p p p i %   ",
"% % % r O.+.k % : % # # # # % 2 k ! 3.l.@.k C U _ #.o./ U I P C C P ~ _ _ 4.p.4.o./ P t & % # # + . ",
"% % # 3 U ;.^ 7 % # # # @ @ $ 2 k _ p.4.I 3 U $.@.~ A x r r r 4 ; ; 4 t C ( $.r.r.1.o.U c w % # # # ",
"p p p 2 k [ ;.U f p p p p p i 4 k _ l.#.C 2 P / C r 4 4 = & & & & $ & < 4 t C R @.r.y.1./ x e i i p ",
"p p p % 2 I #.+.U c f p p p a 2 x _ p.#.c 2 c C 4 & & < , , i i 1 @ , i < & ; r C / 4.y.1.! x e p p ",
"p p u # & k ! +.+./ P C Z C C 2 x _ p.#.A 3 2 2 = < i i p p p p i @ , p u u i < 2 x _ 5.t.o.U j e p ",
"p p i @ % 4 c ! o.o._ o.o._ I 3 c _ y.$.~ k = < 5 i p p p p p p u + , p p p p u & 2 L &.p.3._ c r s ",
": : : + @ > 4 r c P U / _ _ I 3 x ( 4.5.o.A 4 : : : : : : : : : % . % : : : : : % = r o.y.t.o.L z < ",
"+ + . + @ # $ $ = 2 r j c L C 2 r P #.p.&./ ; o o . . + + + + @ @ + + + + + @ + + $ x @.y.t.o.L z 2 ",
"u : + , u i i i 1 & < 2 r r r = r c _ p.y.#.S i 1 # : p i i i i i i i u u u u u i t Y 1.y.5.X.L r ; ",
"p 1 : i p p p p p p i $ ; 4 4 & w k R r.x.p.$.G f % : p p p p p p p p p p p g g V U #.t.r.#.Y c 0 * ",
"p p p p p p p p p p u @ : i i i = w x / r.c.c.1.R r > a s s a p p s s p g g T / _ 1.t.t.%./ n r - * ",
"p p p p p p p p p p i o : p p i & 2 r c _ y.c.x.4._ U P U P P Z C V K T T ( #.9.h.p.t.1.X.L z 0 = i ",
", 1 u 1 1 u u u u 1 , . % u 1 , , = 0 j P o.1.y.p.p.h.c.S.S.p.1.@.o.@.1.y.h.h.h.y.4.#...Y n q - = 1 ",
"@ @ + + + @ + + @ @ + . @ @ + + + @ = w x C _ 1.5.y.h.x.c.S.L.S.D.S.c.l.l.l.y.5.1.o.! L n y 8 * @ @ ",
"1 , , , 1 1 , , , , 1 , , 1 1 : + : > = ; r J _ o.o.#.1.4.y.l.c.B.B.c.y.r.1.@.o.) Y n z y 0 - > % + ",
"p p p p p p p p p p p p p p p , @ u p 1 < ; 0 x L C P / _ @.@.#.&.&.%.o.X.Y I L n z z q - - 1 p : . ",
"p p p p p i p p p p p i p p p , @ i p p p 1 < ; 2 3 0 r x C C L U U L L L c z y q 0 9 ; < 1 p p : . ",
"p p p p p p p p p , : p p p p , @ u p p p p p 1 & & & = 2 2 0 q q r q q q q 0 - - = = < p p p p : . ",
"p p p p p p p p p % @ p p i p , . 1 p p p p p p p p p 1 * * * * * * * * * * * * * 1 p p i p p p :   "
};
