/* XPM */
static char *result[] = {
/* columns rows colors chars-per-pixel */
"50 50 54 1 ",
"  c #040E16",
". c #050F19",
"X c #06121C",
"o c #08141E",
"O c #071622",
"+ c #091621",
"@ c #071825",
"# c #0B1A25",
"$ c #071B29",
"% c #0B1D2B",
"& c #101F2B",
"* c #0A1F30",
"= c #0D202E",
"- c #11222F",
"; c #0D2233",
": c #0E2639",
"> c #0E293D",
", c #122535",
"< c #162937",
"1 c #122738",
"2 c #142A3C",
"3 c #182D3F",
"4 c #0F2C41",
"5 c #132D42",
"6 c #192F41",
"7 c #163145",
"8 c #1A3245",
"9 c #173349",
"0 c #1C364A",
"q c #1F394E",
"w c #1F3A51",
"e c #20374A",
"r c #213A4E",
"t c #223C52",
"y c #254056",
"u c #284156",
"i c #26435A",
"p c #29455D",
"a c #2B485F",
"s c #274660",
"d c #2B4760",
"f c #2D4B64",
"g c #2E4E69",
"h c #304E66",
"j c #314F69",
"k c #33526C",
"l c #355671",
"z c #385773",
"x c #375974",
"c c #395A75",
"v c #3B5E7B",
"b c #3D607E",
"n c #3F6381",
"m c #416583",
/* pixels */
"o%;X%#;*@.%:**@%*:2%2wqfx#1qrqrqrku%7rrtqlro%:Oo%:",
"rt<8t6<rere6tt66t06+;0qpx;9rrtqt0uf%>wrr0kt7t8<et8",
"lvt0lvljjlvvzjnvkvc%:0wzc;7rtqrtrpc,>0rriv80lkckjv",
"0jr@9tp00rtte0pp0pl,5twlc@;9rtqr0fc#;9t0hx<%9tf00p",
"9vt%570tt800055e00k1700tx=2qqqtqqtl;5qqrrbr;969t09",
"O1< %:;:*@:22%:5::e#;>%%2;7qtqtrwul;9trt0krX;;*:O*",
"<rete#XoooooOoo+XoOoo+<r0=>0rrqt0fc%2qtr0kr7t<6te<",
"1gmkcj&201#&#@#O+oXooO9dk=>qt9797pz%29qqqc6wllvlvz",
"%5pt0cdktr008<90r3,+ooO;0=;%%;@;@%5@%@;%;2<;0iu0tv",
"O5qt0flftrq8t0etrtt7oO0urrre<e828trerer7<=X#30q0fl",
"%5qtejfktqttt5<69rqq%owknmvvykbcbnkfcnmblv<+%0trtx",
"%>0trltutrwqq60870qt1o;5pirr7rtrpp00rtkkwgi%<80ttd",
"o*7t0hikf00ttte0tq30:X=9qqqu70rrqqtwqqrt0lu1=o-rwk",
"@:27>thkdyflkljjkjfkp#%0tqqa390rwqrrrtrqtv35:;+0dv",
"#&,,;;3etffe2rkjpfjii<;7rrt0r08tqyqtq0tq0ge244%evk",
"5hfkf0uktklz8tlffdkak0;>0trrttrrqut700twwyy>>2;7dz",
"=7wqfr;sxatl3:qrt0ttku=7wwq90qrtt00t70wt0pp5>>>%tv",
"@>7<y0O7qr0f2%797473q0=4772;>>57725q>>23>9t7515%%f",
"+==-;%$qrrrcr%=o;;%@=#%:+=,##%;%1%=%;1##,-@287:7;O",
"xuhlk0;qtqtv8ukyhc8icfkla3kckfchfkrkckk8kkfkixkgck",
"hvhwku;5qr0k81gvakt:tldyl:9tkxfttkvkykk%7abaqixatf",
"qtq0kr@>57>yr#9ytk8O8tqtc@;0rr0rqqt0qcfo;0qqqqqqre",
"wqqrc3o,1;%=%+9qtv<@qtqkh+:qrqtrtqqtqkc=7rrqtqqrtt",
"qq20ke7kaifk8;qtefe%w0qvi+5tq0qt0qwq0pf;0q0590w09t",
";%X%71=99>7t0;ww0ar>u7qpc#>0qy0q9rttrdho%1%O%%:%@*",
"7<ee#oooooXoo=qqun8#77qpk+=970y25we09tx3tr71<ettrr",
"cxlltt=%#2<=X;9qqxe+807ako#>;==o%42:%;31fcvvxxjkkb",
"aiqktkr00ry<oo%%O:1 ;:#:9#o+oXoooooooOo@2qtpdq00eu",
"r0ff<kt07qq=oerr78re3rr8;t0;;=%#%<<O#ooo;qqq0ttwte",
"00gfwkqtyrq;X8kxbvkcblxbkfp0qq8900t888Oo:0w0q9qrtt",
";>9pgcpgxcjf&.3quu8riq0axflyyyfkirquui6@>2:=2>5572",
"@+%=600qrria<.1tqrtrqrqtkyiafueutr23rhi;%+#%#O;1%#",
"kpllgfj6lfpx8 <trrrtqtquk3kckty2jlgtjzlci1pflijllz",
"lkttzjh*0gfkw%%wttrqtqqfk*0jkvc,0tlvjttgv82wpcgyti",
"0qtr0ta*000zt:%&3etqqtqfp%50rtl&:0et0qt0ct%0tt00tr",
":50520d&5w5tt:::;@3trqqpx%>0ttkO*ttwtet0feo>795596",
"o#&#O%#O+%##%85>;O=rrr0tl#:70jf%20tqqtr0ue @O%%#%O",
"Oooo+OOooXOX+e54=%ettrrhk#>0epl,40trrqttle-ooooOXo",
"2,#2885*#25@#5>4;<tr000cp%9tttl,5ttrrt0ixyc8<@<81%",
"tt0tterwete#+05>1%7-;%;3t<5t0ff@5qrqtqt0fgjlt8ttw8",
"qrtrr099eteOo<7:@+@,1;%@o%>qrth#;8tr0qttkfyzwt00tt",
"0<r08r0w0tr+#84211o<kkapkO=qrpc#;0000tqtk2kp87q09e",
"pp90ttu0ttq;@gq00q-%0acxc->9tgc,7t050qt0ktkt8pt0tt",
"ccfkvccjljfu@lkyfyt#:qqpk=>521i-:w8>;772tfkcfxvkkv",
"<0pr2tttdtpd7ereutro;tqti##-%O@#%<=%#%%@,22ttttyjt",
"0jve=cfilvkkvlthkka#:0rpx7hhkyklka83ldtfkl<yvlfkcc",
"vkkt;wllptlvppkhtyl,>8rlf%9tkcgttvfO9fcfrg6;wgvvji",
"i0kt%7tt0qrtrr0ertk:>9tkho;0qqqqrkc@2wt0elq.8qttq0",
"rtbeX7trtqrqrtwt0fc#5trtc#:qrrrtryc#=0w0fv<%9qrrqt",
"0fmeo5qrqrtqrqtqrkp+5tqfp%5qrrrwrpj%20ttrxr*5qwwrq"
};
